<svg xmlns="http://www.w3.org/2000/svg"  viewBox="0 0 463.997 463.997" width="464px" height="464px"><path fill="#c79a83" d="M383.119,161.6h-88.21c18.63-16.99,30.32-41.46,30.32-68.66c0-51.33-41.62-92.94-92.95-92.94	c-51.33,0-92.94,41.61-92.94,92.94c0,27.2,11.68,51.67,30.31,68.66h-88.77c-19.54,0-35.91,15.99-35.53,35.53	c0.36,18.93,15.82,34.17,34.84,34.17h76.72v92.95l-26.32,91.39c-6.5,20.99,6.48,41.45,26.14,46.26	c19.93,4.87,40.07-8.23,44.55-28.23l21.9-66.54c3.01-9.18,15.99-9.17,19,0.01l22.15,67.59c4.06,18.11,20.84,30.89,39.33,29.1	c22.5-2.16,38.4-24.3,31.39-47.1l-27.32-95.56V231.3h76.08c19.02,0,34.48-15.24,34.84-34.17	C419.029,177.59,402.659,161.6,383.119,161.6z"/><path fill="#fff" d="M232.278,152.92c-22.147,0-42.379-13.036-51.543-33.211c-1.827-4.022-0.048-8.765,3.975-10.593	c4.021-1.826,8.765-0.048,10.592,3.976c6.575,14.475,21.089,23.828,36.976,23.828c16.349,0,31.031-9.729,37.403-24.787	c1.721-4.069,6.415-5.973,10.484-4.25c4.069,1.722,5.972,6.416,4.25,10.484C275.534,139.357,255.069,152.92,232.278,152.92z"/><path fill="#fff" d="M237.999,237h-12c-4.418,0-8-3.582-8-8s3.582-8,8-8h12c4.418,0,8,3.582,8,8S242.417,237,237.999,237z"/><path fill="#fff" d="M237.999,277h-12c-4.418,0-8-3.582-8-8s3.582-8,8-8h12c4.418,0,8,3.582,8,8S242.417,277,237.999,277z"/><path fill="#fff" d="M237.999,317h-12c-4.418,0-8-3.582-8-8s3.582-8,8-8h12c4.418,0,8,3.582,8,8S242.417,317,237.999,317z"/><path fill="#fff" d="M207.999,88c-4.418,0-8-3.582-8-8V63c0-4.418,3.582-8,8-8s8,3.582,8,8v17	C215.999,84.418,212.417,88,207.999,88z"/><path fill="#fff" d="M255.999,88c-4.418,0-8-3.582-8-8V63c0-4.418,3.582-8,8-8c4.418,0,8,3.582,8,8v17	C263.999,84.418,260.417,88,255.999,88z"/><path fill="#e0b7a3" d="M169.822,122.481c1.426,13.995-17.939,19.192-23.354,6.208C120.945,67.494,166.378,0.21,231.975,0	c14.149-0.045,17.033,19.821,3.499,23.949C193.29,36.817,165.206,77.183,169.822,122.481z"/><path fill="#e0b7a3" d="M154.589,429.06c-4.752,15.343-26.049,11.543-25.682-3.287c0.166-6.707-0.763-1.643,28.002-101.523	v-67.53c0-6.627,5.373-12,12-12s12,5.373,12,12v80.95L154.589,429.06z"/><path fill="#e0b7a3" d="M169.927,161.851c5.161,4.627,1.915,13.169-5.017,13.169h-60.032	c-17.128,0-30.066,11.468-34.177,25.603c-4.109,14.129-24.836,11.742-25.339-2.963c-0.677-19.815,15.822-36.06,35.516-36.06	C176.496,161.6,169.511,161.478,169.927,161.851z"/></svg>