<svg xmlns="http://www.w3.org/2000/svg"  viewBox="0 0 464.003 464.003" width="464px" height="464px"><path fill="#ffaa64" d="M198.161,218.262c-5.1,14.72-19.84,23.9-35.3,21.98c-71.38-8.858-133.995-55.707-160.76-127.36	c-5.48-14.67,0.04-31.2,13.27-39.56c52.892-33.451,110.963-57.349,172.17-70.83c20.47-4.5,39.95,10.93,40.24,31.9	C228.638,95.992,219.028,157.914,198.161,218.262z"/><path fill="#ffaa64" d="M448.631,295.122c-51.027-32.271-108.95-56.905-172.17-70.83c-20.47-4.5-39.95,10.93-40.24,31.9	c-0.845,60.738,8.522,122.928,29.62,183.87c5.1,14.72,19.84,23.9,35.3,21.98c71.51-8.874,134.053-55.834,160.76-127.36	C467.381,320.012,461.861,303.482,448.631,295.122z"/><path fill="#ffbd7b" d="M226.231,83.532c-5.02-15.8-21.5-26.07-38.69-22.29c-61.406,13.568-119.225,37.345-172.17,70.83	c-1.28,0.81-2.49,1.69-3.62,2.64c-4.02-7.83-7.18-15.22-9.65-21.83c-5.48-14.67,0.04-31.2,13.27-39.56	c53.771-34.007,111.975-57.572,172.17-70.83c20.47-4.5,39.95,10.93,40.24,31.9C227.991,49.572,227.581,66.012,226.231,83.532z"/><path fill="#ffe773" d="M205.791,194.462c-2.46,8.34-5.03,16.28-7.63,23.8c-5.1,14.72-19.84,23.9-35.3,21.98	c-71.38-8.858-133.995-55.707-160.76-127.36c-5.48-14.67,0.04-31.2,13.27-39.56c6.72-4.25,13.86-8.56,21.41-12.86	C62.479,136.508,129.009,187.398,205.791,194.462z"/><path fill="#fff0a6" d="M59.471,107.002c-8.01,4.065-28.474,15.157-40.327,22.606c-4.093,2.572-9.523,0.964-11.531-3.433	c-2.138-4.682-3.961-9.141-5.512-13.293c-5.48-14.67,0.04-31.2,13.27-39.56c6.72-4.25,13.86-8.56,21.41-12.86	C41.081,73.172,48.101,89.712,59.471,107.002z"/><path fill="#cbe3fa" d="M227.781,34.392c0.25,17.98-0.37,37.74-2.4,58.95c-39.629-14.915-72.021-40.847-94.72-75.02	c20.2-6.84,39.31-11.96,56.88-15.83C208.011-2.008,227.491,13.422,227.781,34.392z"/><path fill="#eef7ff" d="M227.794,35.367c0.187,15.563-13.572,27.274-29.016,25.343c-6.82-0.853-11.336,0.375-25.257,3.812	c-16.267-12.588-30.909-28.208-42.86-46.2c20.2-6.84,39.31-11.96,56.88-15.83C207.149-1.818,227.515,12.188,227.794,35.367z"/><path fill="#ffbd7b" d="M463.781,319.312c-46.581-26.399-97.074-45.762-149.64-57.34c-20.47-4.5-39.95,10.93-40.24,31.9	c-0.829,59.656,8.384,117.363,24.52,168.39c-14.44,0.6-27.78-8.34-32.58-22.2c-20.857-60.246-30.475-122.362-29.62-183.87	c0.29-20.97,19.77-36.4,40.24-31.9c59.904,13.195,118.218,36.708,172.17,70.83C457.311,300.602,462.671,309.612,463.781,319.312z"/><path fill="#cbe3fa" d="M276.461,224.292c17.57,3.87,36.68,8.99,56.88,15.84c-22.753,34.22-55.157,60.128-94.71,75.02	c-2.04-21.22-2.66-40.98-2.41-58.96C236.511,235.222,255.991,219.792,276.461,224.292z"/><path fill="#eef7ff" d="M333.341,240.132c-4.91,7.38-10.61,14.88-17.23,22.28c-23.896-5.445-41.934,11.48-42.21,31.46	c-0.02,1.31-0.03,2.63-0.04,3.96c-9.12,5.64-20.97,11.95-35.23,17.32c-2.04-21.22-2.66-40.98-2.41-58.96	c0.29-20.97,19.77-36.4,40.24-31.9C294.031,228.162,313.141,233.282,333.341,240.132z"/><path fill="#ffe773" d="M448.631,295.122c13.23,8.36,18.75,24.89,13.27,39.56c-26.67,71.427-89.151,118.474-160.76,127.36	c-15.46,1.92-30.2-7.26-35.3-21.98c-2.6-7.51-5.17-15.45-7.63-23.8c76.587-7.046,143.244-57.75,169.01-134	C434.771,286.562,441.911,290.872,448.631,295.122z"/><path fill="#fff0a6" d="M290.173,433.026c3.902,15.517-18.906,22.702-24.332,7.036c-2.6-7.51-5.17-15.45-7.63-23.8	c9.58-0.88,18.62-2.43,27.08-4.43C286.78,418.962,288.429,426.087,290.173,433.026z"/><path fill="#fff0a6" d="M441.781,307.516c-6.574-3.329-13.404-6.616-20.49-9.834c2.4-5.56,4.35-10.75,5.93-15.42	c8.142,4.637,17.08,10.069,21.669,13.026C456.375,300.11,449.724,311.538,441.781,307.516z"/></svg>