<?xml version="1.0" encoding="UTF-8"?>
<svg xmlns="http://www.w3.org/2000/svg" xmlns:xlink="http://www.w3.org/1999/xlink" viewBox="0 0 256 256" width="256px" height="256px">
<defs>
<linearGradient id="linear0" gradientUnits="userSpaceOnUse" x1="8.62721" y1="35.52655" x2="11.71726" y2="38.6166" gradientTransform="matrix(5.333328,0,0,5.333328,0,0)">
<stop offset="0" style="stop-color:rgb(87.058824%,75.686276%,52.941179%);stop-opacity:1;"/>
<stop offset="1" style="stop-color:rgb(52.941179%,44.313726%,27.058825%);stop-opacity:1;"/>
</linearGradient>
<linearGradient id="linear1" gradientUnits="userSpaceOnUse" x1="15.30936" y1="30.06061" x2="17.63575" y2="32.38699" gradientTransform="matrix(5.333328,0,0,5.333328,0,0)">
<stop offset="0" style="stop-color:rgb(52.941179%,44.313726%,27.058825%);stop-opacity:1;"/>
<stop offset="1" style="stop-color:rgb(52.941179%,44.313726%,27.058825%);stop-opacity:0;"/>
</linearGradient>
<linearGradient id="linear2" gradientUnits="userSpaceOnUse" x1="23.455231" y1="4.40678" x2="31.29705" y2="33.603222" gradientTransform="matrix(5.333328,0,0,5.333328,0,0)">
<stop offset="0" style="stop-color:rgb(96.862745%,98.823529%,80.000001%);stop-opacity:1;"/>
<stop offset="1" style="stop-color:rgb(94.901961%,74.117649%,4.705882%);stop-opacity:1;"/>
</linearGradient>
<linearGradient id="linear3" gradientUnits="userSpaceOnUse" x1="23.455231" y1="4.40678" x2="31.29705" y2="33.603222" gradientTransform="matrix(5.333328,0,0,5.333328,0,0)">
<stop offset="0" style="stop-color:rgb(96.862745%,98.823529%,80.000001%);stop-opacity:1;"/>
<stop offset="1" style="stop-color:rgb(94.901961%,74.117649%,4.705882%);stop-opacity:1;"/>
</linearGradient>
<linearGradient id="linear4" gradientUnits="userSpaceOnUse" x1="25.5907" y1="-1.16522" x2="29.28179" y2="27.274611" gradientTransform="matrix(5.333328,0,0,5.333328,0,0)">
<stop offset="0" style="stop-color:rgb(90.196079%,61.56863%,80.392158%);stop-opacity:1;"/>
<stop offset="0.51" style="stop-color:rgb(79.607844%,48.627451%,73.333335%);stop-opacity:1;"/>
<stop offset="1" style="stop-color:rgb(84.705883%,26.274511%,56.078434%);stop-opacity:1;"/>
</linearGradient>
<radialGradient id="radial0" gradientUnits="userSpaceOnUse" cx="26.750351" cy="21.250059" fx="26.750351" fy="21.250059" r="18.559999" gradientTransform="matrix(5.333328,0,0,5.333328,0,0)">
<stop offset="0" style="stop-color:rgb(79.607844%,48.627451%,73.333335%);stop-opacity:0;"/>
<stop offset="0.36" style="stop-color:rgb(79.607844%,48.235294%,73.333335%);stop-opacity:0.01;"/>
<stop offset="0.51" style="stop-color:rgb(80.000001%,47.843137%,72.549021%);stop-opacity:0.04;"/>
<stop offset="0.61" style="stop-color:rgb(80.000001%,46.27451%,71.764708%);stop-opacity:0.1;"/>
<stop offset="0.69" style="stop-color:rgb(80.392158%,44.705883%,70.19608%);stop-opacity:0.18;"/>
<stop offset="0.76" style="stop-color:rgb(81.176472%,42.352942%,68.627453%);stop-opacity:0.28;"/>
<stop offset="0.83" style="stop-color:rgb(81.568629%,39.607844%,66.274512%);stop-opacity:0.41;"/>
<stop offset="0.88" style="stop-color:rgb(82.352942%,36.078432%,63.529414%);stop-opacity:0.56;"/>
<stop offset="0.94" style="stop-color:rgb(83.529413%,32.156864%,60.392159%);stop-opacity:0.74;"/>
<stop offset="0.99" style="stop-color:rgb(84.313726%,27.843139%,57.254905%);stop-opacity:0.93;"/>
<stop offset="1" style="stop-color:rgb(84.705883%,26.274511%,56.078434%);stop-opacity:1;"/>
</radialGradient>
<linearGradient id="linear5" gradientUnits="userSpaceOnUse" x1="30.010111" y1="0.51062" x2="27.796869" y2="21.64604" gradientTransform="matrix(5.333328,0,0,5.333328,0,0)">
<stop offset="0" style="stop-color:rgb(100%,100%,100%);stop-opacity:0.6;"/>
<stop offset="1" style="stop-color:rgb(100%,100%,100%);stop-opacity:0;"/>
</linearGradient>
<linearGradient id="linear6" gradientUnits="userSpaceOnUse" x1="811.42334" y1="653.047241" x2="1120.708984" y2="162.697144" gradientTransform="matrix(5.333328,0,0,5.333328,0,0)">
<stop offset="0" style="stop-color:rgb(100%,100%,100%);stop-opacity:0.6;"/>
<stop offset="1" style="stop-color:rgb(100%,100%,100%);stop-opacity:0;"/>
</linearGradient>
<linearGradient id="linear7" gradientUnits="userSpaceOnUse" x1="115.702942" y1="64.489014" x2="137.401031" y2="67.751373" gradientTransform="matrix(5.333328,0,0,5.333328,0,0)">
<stop offset="0" style="stop-color:rgb(100%,100%,100%);stop-opacity:0.6;"/>
<stop offset="1" style="stop-color:rgb(100%,100%,100%);stop-opacity:0;"/>
</linearGradient>
<linearGradient id="linear8" gradientUnits="userSpaceOnUse" x1="130.684525" y1="58.606812" x2="113.104988" y2="66.041023" gradientTransform="matrix(5.333328,0,0,5.333328,0,0)">
<stop offset="0" style="stop-color:rgb(100%,100%,100%);stop-opacity:0.6;"/>
<stop offset="1" style="stop-color:rgb(100%,100%,100%);stop-opacity:0;"/>
</linearGradient>
<linearGradient id="linear9" gradientUnits="userSpaceOnUse" x1="29.094339" y1="2.80109" x2="29.67861" y2="10.04813" gradientTransform="matrix(5.333328,0,0,5.333328,0,0)">
<stop offset="0" style="stop-color:rgb(100%,100%,100%);stop-opacity:0.8;"/>
<stop offset="1" style="stop-color:rgb(100%,100%,100%);stop-opacity:0;"/>
</linearGradient>
</defs>
<g id="surface74521786">
<path style=" stroke:none;fill-rule:evenodd;fill:url(#linear0);" d="M 101.601562 171.679688 L 36.800781 236.480469 C 34.527344 238.761719 31.433594 240.03125 28.214844 240 C 24.976562 240.046875 21.855469 238.777344 19.574219 236.480469 C 14.828125 231.695312 14.828125 223.980469 19.574219 219.199219 L 84.320312 154.398438 Z M 101.601562 171.679688 "/>
<path style=" stroke:none;fill-rule:evenodd;fill:url(#linear1);" d="M 101.601562 171.679688 L 93.546875 179.734375 C 87.007812 174.808594 81.191406 168.992188 76.265625 162.453125 L 84.320312 154.398438 Z M 101.601562 171.679688 "/>
<path style=" stroke:none;fill-rule:evenodd;fill:url(#linear2);" d="M 209.601562 167.359375 C 180.625 197.625 133.960938 202.375 99.480469 178.570312 C 65 154.765625 52.902344 109.449219 70.933594 71.625 C 65.933594 86.976562 65.125 103.378906 68.585938 119.148438 C 74.054688 143.183594 90.65625 163.171875 113.28125 172.960938 C 130.855469 180.738281 150.863281 180.929688 168.585938 173.492188 C 188.726562 165.183594 203.257812 147.195312 207.144531 125.761719 C 209.917969 107.742188 203.980469 89.476562 191.148438 76.535156 C 177.652344 63.535156 157.824219 59.578125 140.375 66.398438 C 120.585938 74.027344 109.386719 98.398438 122.078125 117.171875 C 129.171875 127.304688 144.90625 133.171875 154.078125 122.507812 C 157.121094 118.453125 159.414062 110.347656 153.546875 108.800781 C 149.492188 107.785156 143.414062 108.800781 141.867188 102.1875 C 140.320312 90.507812 153.011719 86.933594 162.1875 89.011719 C 175.066406 92.085938 183.742188 104.144531 182.558594 117.332031 C 181.886719 128.3125 176.523438 138.476562 167.839844 145.226562 C 150.238281 157.640625 126.378906 156.15625 110.453125 141.652344 C 100.308594 132.378906 93.820312 119.777344 92.160156 106.132812 C 89.050781 72.3125 113.335938 42.125 147.039062 37.921875 C 196.320312 30.027344 236.480469 72.320312 233.707031 119.839844 C 230.949219 137.847656 222.5 154.5 209.601562 167.359375 Z M 209.601562 167.359375 "/>
<path style=" stroke:none;fill-rule:evenodd;fill:url(#linear3);" d="M 233.707031 119.839844 C 236.480469 72.375 196.375 30.027344 147.039062 37.921875 C 113.449219 42.148438 89.222656 72.195312 92.214844 105.917969 C 93.875 119.566406 100.363281 132.164062 110.507812 141.441406 C 126.429688 155.941406 150.292969 157.425781 167.894531 145.011719 C 176.503906 138.300781 181.839844 128.230469 182.558594 117.332031 C 183.578125 104.472656 175.246094 92.726562 162.773438 89.441406 C 153.652344 87.414062 140.960938 90.988281 142.453125 102.613281 C 144 109.226562 150.078125 107.945312 154.132812 109.226562 C 159.464844 110.773438 157.707031 118.878906 154.667969 122.933594 C 145.546875 133.066406 129.8125 127.519531 122.667969 117.601562 C 109.972656 98.828125 121.121094 74.453125 140.960938 66.828125 C 158.410156 60.003906 178.238281 63.960938 191.734375 76.960938 C 204.570312 89.902344 210.503906 108.167969 207.734375 126.1875 C 203.84375 147.625 189.3125 165.609375 169.171875 173.917969 C 151.449219 181.359375 131.445312 181.164062 113.867188 173.386719 C 91.242188 163.597656 74.644531 143.609375 69.171875 119.574219 C 65.710938 103.808594 66.519531 87.402344 71.519531 72.054688 C 58.488281 102.296875 64.023438 137.339844 85.742188 162.09375 C 107.460938 186.847656 141.480469 196.898438 173.164062 187.914062 C 204.847656 178.933594 228.53125 152.523438 234.027344 120.054688 Z M 233.707031 119.839844 "/>
<path style=" stroke:none;fill-rule:evenodd;fill:url(#linear4);" d="M 147.039062 37.921875 C 113.449219 42.148438 89.222656 72.195312 92.214844 105.917969 C 93.875 119.566406 100.363281 132.164062 110.507812 141.441406 C 126.429688 155.941406 150.292969 157.425781 167.894531 145.011719 C 176.503906 138.300781 181.839844 128.230469 182.558594 117.332031 C 183.578125 104.472656 175.246094 92.726562 162.773438 89.441406 C 153.652344 87.414062 140.960938 90.988281 142.453125 102.613281 C 144 109.226562 150.078125 107.945312 154.132812 109.226562 C 159.464844 110.773438 157.707031 118.878906 154.667969 122.933594 C 145.546875 133.066406 129.8125 127.519531 122.667969 117.601562 C 109.972656 98.828125 121.121094 74.453125 140.960938 66.828125 C 158.410156 60.003906 178.238281 63.960938 191.734375 76.960938 C 204.570312 89.902344 210.503906 108.167969 207.734375 126.1875 C 203.84375 147.625 189.3125 165.609375 169.171875 173.917969 C 151.449219 181.359375 131.445312 181.164062 113.867188 173.386719 C 91.242188 163.597656 74.644531 143.609375 69.171875 119.574219 C 65.710938 103.808594 66.519531 87.402344 71.519531 72.054688 C 88.609375 32.386719 132.640625 11.746094 174.0625 23.980469 C 215.484375 36.214844 241.230469 77.46875 234.027344 120.054688 C 236.425781 72.320312 196.265625 30.027344 147.039062 37.921875 Z M 147.039062 37.921875 "/>
<path style=" stroke:none;fill-rule:evenodd;fill:url(#radial0);" d="M 233.707031 119.839844 C 240.019531 78.394531 215.296875 38.503906 175.367188 25.71875 C 135.441406 12.933594 92.144531 31.046875 73.210938 68.449219 C 54.277344 105.851562 65.320312 151.46875 99.261719 176.074219 C 133.203125 200.679688 179.992188 196.988281 209.652344 167.359375 C 222.535156 154.492188 230.964844 137.839844 233.707031 119.839844 Z M 233.707031 119.839844 "/>
<path style=" stroke:none;fill-rule:evenodd;fill:url(#linear5);" d="M 230.292969 119.359375 C 236.40625 79.488281 212.644531 41.085938 174.238281 28.765625 C 135.828125 16.441406 94.160156 33.851562 75.9375 69.835938 C 57.710938 105.820312 68.335938 149.714844 100.996094 173.382812 C 133.660156 197.050781 178.675781 193.480469 207.199219 164.960938 C 219.570312 152.59375 227.664062 136.597656 230.292969 119.304688 Z M 230.292969 119.359375 "/>
<path style=" stroke:none;fill-rule:evenodd;fill:url(#linear6);" d="M 230.292969 119.359375 C 232.445312 104.707031 230.601562 89.746094 224.960938 76.054688 C 228.128906 87.289062 228.875 99.070312 227.144531 110.613281 C 221.574219 147.070312 192.371094 175.335938 155.75 179.710938 C 119.128906 184.089844 84.085938 163.503906 70.078125 129.386719 C 80.707031 166.417969 115.660156 191.074219 154.109375 188.664062 C 192.558594 186.253906 224.160156 157.425781 230.078125 119.359375 Z M 230.292969 119.359375 "/>
<path style=" stroke:none;fill-rule:evenodd;fill:url(#linear7);" d="M 177.386719 104.691406 C 177.816406 105.609375 178.039062 106.613281 178.027344 107.625 C 178.027344 109.917969 176.320312 110.878906 174.453125 109.601562 C 173.625 108.878906 172.941406 108.011719 172.425781 107.039062 C 170.371094 103.984375 167.347656 101.710938 163.839844 100.585938 C 162.445312 100.265625 161.085938 99.800781 159.785156 99.199219 C 158.472656 98.546875 157.644531 97.203125 157.652344 95.734375 C 158.027344 92.214844 162.988281 92.746094 165.121094 93.492188 C 170.460938 95.234375 174.855469 99.089844 177.28125 104.160156 Z M 177.386719 104.691406 "/>
<path style=" stroke:none;fill-rule:evenodd;fill:url(#linear8);" d="M 139.519531 118.507812 C 136.382812 118.296875 133.34375 117.328125 130.667969 115.679688 C 130.09375 115.253906 129.441406 114.945312 128.746094 114.773438 C 128.046875 114.617188 127.328125 114.941406 126.988281 115.574219 C 126.765625 116.101562 126.765625 116.699219 126.988281 117.226562 C 130.109375 123.660156 137.644531 126.628906 144.320312 124.054688 C 145.484375 123.667969 146.503906 122.945312 147.253906 121.972656 C 150.238281 117.601562 143.253906 118.71875 141.011719 118.613281 Z M 139.519531 118.507812 "/>
<path style=" stroke:none;fill-rule:evenodd;fill:url(#linear9);" d="M 191.359375 41.867188 C 192.1875 42.585938 192.941406 43.390625 193.601562 44.265625 C 195.613281 46.792969 195.613281 50.378906 193.601562 52.90625 C 191.039062 55.625 186.613281 54.71875 182.933594 53.867188 C 169.457031 50.707031 155.496094 50.164062 141.8125 52.265625 C 137.992188 53.0625 134.082031 53.332031 130.1875 53.066406 C 120.160156 51.734375 115.894531 40.746094 124.851562 35.148438 C 135.34375 29.132812 147.628906 27.035156 159.519531 29.226562 C 165.570312 30.132812 171.484375 31.796875 177.121094 34.1875 C 182.222656 36.023438 187.023438 38.613281 191.359375 41.867188 Z M 191.359375 41.867188 "/>
</g>
</svg>
