<?xml version="1.0" encoding="UTF-8" standalone="no"?>
<svg
   viewBox="0 0 48 48"
   width="450px"
   height="450px"
   version="1.1"
   id="svg89"
   sodipodi:docname="start.svg"
   inkscape:version="1.1 (c4e8f9e, 2021-05-24)"
   xmlns:inkscape="http://www.inkscape.org/namespaces/inkscape"
   xmlns:sodipodi="http://sodipodi.sourceforge.net/DTD/sodipodi-0.dtd"
   xmlns="http://www.w3.org/2000/svg"
   xmlns:svg="http://www.w3.org/2000/svg">
  <defs
     id="defs93">
    <rect
       x="94.39314"
       y="89.643799"
       width="257.65172"
       height="63.522427"
       id="rect4327" />
  </defs>
  <sodipodi:namedview
     id="namedview91"
     pagecolor="#ffffff"
     bordercolor="#666666"
     borderopacity="1.0"
     inkscape:pageshadow="2"
     inkscape:pageopacity="0.0"
     inkscape:pagecheckerboard="0"
     showgrid="false"
     inkscape:zoom="1.6844444"
     inkscape:cx="101.81399"
     inkscape:cy="225.00001"
     inkscape:window-width="1920"
     inkscape:window-height="942"
     inkscape:window-x="0"
     inkscape:window-y="25"
     inkscape:window-maximized="0"
     inkscape:current-layer="svg89" />
  <linearGradient
     id="OiBC6efmG0TC6xgwdfN9Da"
     x1="24"
     x2="24"
     y1="3.374"
     y2="44.378"
     gradientUnits="userSpaceOnUse">
    <stop
       offset="0"
       stop-color="#d43a02"
       id="stop68" />
    <stop
       offset="1"
       stop-color="#b9360c"
       id="stop70" />
  </linearGradient>
  <path
     fill="url(#OiBC6efmG0TC6xgwdfN9Da)"
     d="M25,43h-2c-0.552,0-1-0.448-1-1V6c0-0.552,0.448-1,1-1h2c0.552,0,1,0.448,1,1v36 C26,42.552,25.552,43,25,43z"
     id="path73" />
  <linearGradient
     id="OiBC6efmG0TC6xgwdfN9Db"
     x1="25"
     x2="25"
     y1="7.572"
     y2="18.363"
     gradientUnits="userSpaceOnUse">
    <stop
       offset="0"
       stop-color="#ffd869"
       id="stop75" />
    <stop
       offset="1"
       stop-color="#fec52b"
       id="stop77" />
  </linearGradient>
  <path
     fill="url(#OiBC6efmG0TC6xgwdfN9Db)"
     d="M42.562,11.751l-2.4-3C39.782,8.276,39.208,8,38.6,8H9c-1.105,0-2,0.895-2,2v6 c0,1.105,0.895,2,2,2h29.6c0.608,0,1.182-0.276,1.562-0.751l2.4-3C43.146,13.519,43.146,12.481,42.562,11.751z"
     id="path80" />
  <linearGradient
     id="OiBC6efmG0TC6xgwdfN9Dc"
     x1="23"
     x2="23"
     y1="21.553"
     y2="31.961"
     gradientUnits="userSpaceOnUse">
    <stop
       offset="0"
       stop-color="#ffd869"
       id="stop82" />
    <stop
       offset="1"
       stop-color="#fec52b"
       id="stop84" />
  </linearGradient>
  <g
     aria-label="START"
     transform="matrix(0.10666667,0,0,0.10666667,0,0.42666666)"
     id="text4325"
     style="font-size:48px;line-height:1.25;white-space:pre;shape-inside:url(#rect4327);fill:#f9f9f9;stroke:#ee0000;stroke-width:2.1">
    <path
       d="m 171.42787,107.75639 q -0.912,-1.152 -2.496,-1.68 -1.536,-0.576 -2.928,-0.576 -0.816,0 -1.68,0.192 -0.864,0.192 -1.632,0.624 -0.768,0.384 -1.248,1.056 -0.48,0.672 -0.48,1.632 0,1.536 1.152,2.352 1.152,0.816 2.88,1.392 1.776,0.576 3.792,1.152 2.016,0.576 3.74401,1.632 1.77599,1.056 2.92799,2.832 1.152,1.776 1.152,4.752 0,2.832 -1.05599,4.944 -1.05601,2.112 -2.88001,3.504 -1.776,1.392 -4.176,2.064 -2.352,0.672 -4.99199,0.672 -3.31201,0 -6.14401,-1.008 -2.83199,-1.008 -5.28,-3.264 l 5.328,-5.856 q 1.152,1.536 2.88,2.4 1.77601,0.816 3.648,0.816 0.912,0 1.824,-0.192 0.96,-0.24 1.68,-0.672 0.768,-0.432 1.2,-1.104 0.48,-0.672 0.48,-1.584 0,-1.536 -1.2,-2.4 -1.152,-0.912 -2.928,-1.536 -1.776,-0.624 -3.84,-1.248 -2.064,-0.624 -3.84,-1.68 -1.776,-1.056 -2.976,-2.784 -1.152,-1.728 -1.152,-4.56 0,-2.736 1.056,-4.8 1.104,-2.064 2.88,-3.456 1.824,-1.392004 4.176,-2.064004 2.352,-0.72 4.848,-0.72 2.88,0 5.568,0.816 2.688,0.816004 4.848,2.736004 z"
       style="font-weight:bold;font-family:Avenir;-inkscape-font-specification:'Avenir Bold';text-align:center;text-anchor:middle"
       id="path922" />
    <path
       d="m 188.76637,106.07639 h -9.69599 v -6.624004 h 26.87999 v 6.624004 h -9.696 v 27.36 h -7.488 z"
       style="font-weight:bold;font-family:Avenir;-inkscape-font-specification:'Avenir Bold';text-align:center;text-anchor:middle"
       id="path924" />
    <path
       d="m 216.53062,99.452386 h 6.192 l 14.784,33.984004 h -8.448 l -2.928,-7.2 h -13.2 l -2.832,7.2 h -8.256 z m 2.88,9.888004 -4.128,10.56 h 8.304 z"
       style="font-weight:bold;font-family:Avenir;-inkscape-font-specification:'Avenir Bold';text-align:center;text-anchor:middle"
       id="path926" />
    <path
       d="m 240.87787,99.452386 h 13.152 q 2.592,0 4.89601,0.528 2.35199,0.480004 4.07999,1.680004 1.77601,1.152 2.784,3.168 1.056,1.968 1.056,4.944 0,3.6 -1.87199,6.144 -1.87201,2.496 -5.47201,3.168 l 8.64001,14.352 h -8.976 l -7.10401,-13.584 h -3.696 v 13.584 h -7.488 z m 7.488,14.064004 h 4.41601 q 1.00799,0 2.11199,-0.048 1.15201,-0.096 2.064,-0.432 0.912,-0.384 1.488,-1.152 0.62401,-0.768 0.62401,-2.16 0,-1.296 -0.52801,-2.064 -0.528,-0.768 -1.344,-1.152 -0.816,-0.432 -1.872,-0.576 -1.05599,-0.144 -2.064,-0.144 h -4.896 z"
       style="font-weight:bold;font-family:Avenir;-inkscape-font-specification:'Avenir Bold';text-align:center;text-anchor:middle"
       id="path928" />
    <path
       d="m 277.73512,106.07639 h -9.69599 v -6.624004 h 26.87999 v 6.624004 h -9.696 v 27.36 h -7.488 z"
       style="font-weight:bold;font-family:Avenir;-inkscape-font-specification:'Avenir Bold';text-align:center;text-anchor:middle"
       id="path930" />
  </g>
</svg>
